# xmcd
#
# Track frame offsets: 
#        150
#        18075
#        40275
#        55950
#        71925
#        86025
#        111000
#        125100
#        141675
#        155475
#        166575
#        186150
#        202200
#
# Disc length: 2923 seconds
#
# Revision: 0
# Processed by: cddbd v1.5.2PL0 Copyright (c) Steve Scherf et al.
# Submitted via: ExactAudioCopy v1.0b3
#
DISCID=c30b690d
DTITLE=Waylon Jennings - Goin' Down Rockin'
DYEAR=2012
DGENRE=Country
TTITLE0=Goin' Down Rockin'
TTITLE1=Belle Of The Ball
TTITLE2=If My Harley Was Runnin'
TTITLE3=I Do Believe
TTITLE4=Friends In California
TTITLE5=The Ways Of The World
TTITLE6=Shakin' The Blues
TTITLE7=Never Say Die
TTITLE8=Wastin Time
TTITLE9=Sad Songs And Waltzes
TTITLE10=She Was No Good For Me
TTITLE11=Wrong Road To Nashville
TTITLE12=Women From Memphis
EXTD=
EXTT0=
EXTT1=
EXTT2=
EXTT3=
EXTT4=
EXTT5=
EXTT6=
EXTT7=
EXTT8=
EXTT9=
EXTT10=
EXTT11=
EXTT12=
PLAYORDER=
